<?xml version="1.0" encoding="utf-8"?>
<svg version="1.1" xmlns:xlink="http://www.w3.org/1999/xlink" width="18px" height="18px" xmlns="http://www.w3.org/2000/svg">
  <g transform="matrix(1 0 0 1 -269 -2041 )">
    <path d="M 10.8024553515625 9.92075892578125  C 11.1186755989583 9.18043154296875  11.2767857226563 8.42336309244792  11.2767857226562 7.64955357421875  C 11.2767857226562 6.84598214192708  11.0777529817708 6.21726190104167  10.6796875 5.7633928515625  C 10.2816220182292 5.30952380208333  9.73288690104167 5.08258927734375  9.0334821484375 5.08258927734375  C 8.5647321484375 5.08258927734375  8.10342262369792 5.19605654296875  7.64955357421875 5.42299107421875  C 7.19568452473958 5.64992560546875  6.78645833333333 5.96428572265625  6.421875 6.36607142578125  C 6.05729166666667 6.76785712890625  5.76153274088542 7.27752974609375  5.53459822265625 7.89508927734375  C 5.30766370442708 8.51264880859375  5.19419643880208 9.18229166666666  5.19419642578125 9.9040178515625  C 5.19419642578125 10.7373511848958  5.39322916666667 11.3809523763021  5.7912946484375 11.8348214257812  C 6.18936013020833 12.2886904752604  6.74925596354167 12.515625  7.4709821484375 12.515625  C 8.18526786458333 12.515625  8.840029765625 12.2682291666667  9.4352678515625 11.7734375  C 10.0305059375 11.2786458333333  10.4862351041667 10.6610863085937  10.8024553515625 9.92075892578125  Z M 15.2053571484375 2.7946428515625  C 16.7827380989583 4.37202380208333  17.5714285742188 6.44047618489583  17.5714285742187 9  C 17.5714285742187 9.8258928515625  17.433779765625 10.5587797591146  17.1584821484375 11.1986607226562  C 16.88318453125 11.8385416861979  16.5167410742187 12.340773828125  16.0591517773438 12.7053571484375  C 15.6015624804688 13.06994046875  15.112351171875 13.347098203125  14.5915178515625 13.5368303515625  C 14.07068453125 13.7265625  13.5312500065104 13.8288690494792  12.9732142773438 13.84375  C 12.9285714257812 13.84375  12.8709077408854 13.8456101171875  12.8002232226562 13.8493303515625  C 12.7295387044271 13.8530505859375  12.6681547721354 13.8549107096354  12.6160714257812 13.8549107226562  C 11.9092261914063 13.8549107226563  11.3809523828125 13.6577380989583  11.03125 13.2633928515625  C 10.8229166666667 13.0178571354167  10.7001488085937 12.7090773763021  10.6629464257812 12.3370535742187  C 10.2760416601562 12.8281250065104  9.7868303515625 13.2373511979167  9.1953125 13.5647321484375  C 8.6037946484375 13.8921130989583  7.95833333984375 14.0558035742187  7.25892857421875 14.0558035742187  C 6.06101190755208 14.0558035742187  5.1328125 13.7005208333333  4.4743303515625 12.9899553515625  C 3.815848203125 12.2793898697917  3.48660713541667 11.276785703125  3.4866071484375 9.9821428515625  C 3.4866071484375 8.8139880859375  3.73214285807292 7.73511904296875  4.22321427734375 6.74553572265625  C 4.71428569661458 5.75595240234375  5.3802083203125 4.97284227864583  6.2209821484375 4.3962053515625  C 7.0617559765625 3.81956842447917  7.97693454427083 3.53124997395833  8.9665178515625 3.53125  C 9.61383928385417 3.53125  10.1904761914063 3.66331845052083  10.6964285742187 3.9274553515625  C 11.2023809570312 4.19159225260417  11.5967261914062 4.56175594401042  11.8794642773437 5.03794642578125  L 11.9017857226562 4.8258928515625  L 12.0245535742187 4.2008928515625  C 12.0319940559896 4.15625  12.0524553645833 4.11160714192708  12.0859375 4.06696427734375  C 12.1194196354167 4.02232141276042  12.1547618945313 3.99999998697917  12.1919642773438 4  L 13.5089285742188 4  C 13.5461309570313 4  13.5944940494792 4.0409226171875  13.6540178515625 4.1227678515625  C 13.691220234375 4.159970234375  13.7023809505208 4.21949404296875  13.6875 4.30133927734375  L 12.3482142773438 11.1540178515625  C 12.3110118945313 11.3325892838542  12.2924107096354 11.5111607161458  12.2924107226563 11.6897321484375  C 12.2924107226563 11.9799107161458  12.3389136979167 12.1733630924479  12.4319196484375 12.2700892773438  C 12.5249255989583 12.3668154622396  12.6904761914063 12.4151785611979  12.9285714257813 12.4151785742188  C 13.1369047591146 12.4077380924479  13.3489583333333 12.3872767838542  13.5647321484375 12.3537946484375  C 13.7805059635417 12.3203125130208  14.0520833398438 12.231026796875  14.3794642773438 12.0859375  C 14.7068452148438 11.940848203125  14.9933035481771 11.7548362955729  15.2388392773438 11.5279017773438  C 15.4843750065104 11.3009672591146  15.6964285807292 10.9680059505208  15.875 10.5290178515625  C 16.0535714192708 10.0900297526042  16.1428571354167 9.58035713541667  16.1428571484375 9  C 16.1428571484375 6.82738095052083  15.4955357161458 5.09375  14.2008928515625 3.7991071484375  C 12.9062499869792 2.504464296875  11.1726190364583 1.85714286458333  9 1.8571428515625  C 8.03273809895834 1.8571428515625  7.10825893229167 2.04687499348958  6.2265625 2.42633927734375  C 5.34486606770833 2.80580356119792  4.58593749348958 3.31361606119792  3.94977677734375 3.94977677734375  C 3.31361606119792 4.58593749348958  2.80580356119792 5.34486606770833  2.42633927734375 6.2265625  C 2.04687499348958 7.10825893229167  1.8571428515625 8.03273809895834  1.8571428515625 9  C 1.8571428515625 9.96726190104167  2.04687499348958 10.8917410677083  2.42633927734375 11.7734375  C 2.80580356119792 12.6551339322917  3.31361606119792 13.4140625065104  3.94977677734375 14.0502232226562  C 4.58593749348958 14.6863839388021  5.34486606770833 15.1941964388021  6.2265625 15.5736607226562  C 7.10825893229167 15.9531250065104  8.03273809895833 16.1428571484375  9 16.1428571484375  C 10.6964285677083 16.1428571484375  12.2031249934896 15.6071428580729  13.5200892773438 14.5357142773438  C 13.6019345117188 14.4687499934896  13.6912202278646 14.4389880924479  13.7879464257813 14.4464285742188  C 13.8846726236979 14.4538690559896  13.9627976236979 14.4985119140625  14.0223214257813 14.5803571484375  L 14.4799107226563 15.1272321484375  C 14.5394345377604 15.2165178645833  14.5654762044271 15.3058035742187  14.5580357226563 15.3950892773438  C 14.5431547721354 15.4918154622396  14.4985119140625 15.573660703125  14.4241071484375 15.640625  C 13.6651785807292 16.2581845182292  12.8188244140625 16.7343749934896  11.8850446484375 17.0691964257813  C 10.9512648828125 17.4040178580729  9.98958333333334 17.5714285742187  9 17.5714285742187  C 7.83928571614583 17.5714285742187  6.730654765625 17.3444940494792  5.6741071484375 16.890625  C 4.61755953125 16.4367559505208  3.70610119791667 15.8266369010417  2.9397321484375 15.0602678515625  C 2.17336309895833 14.2938988020833  1.56324404947917 13.38244046875  1.109375 12.3258928515625  C 0.655505950520834 11.269345234375  0.428571425781251 10.1607142838542  0.42857142578125 9  C 0.42857142578125 7.83928571614583  0.655505950520833 6.730654765625  1.109375 5.6741071484375  C 1.56324404947917 4.61755953125  2.17336309895833 3.70610119791667  2.9397321484375 2.9397321484375  C 3.70610119791667 2.17336309895833  4.61755953125 1.56324404947917  5.6741071484375 1.109375  C 6.730654765625 0.655505950520834  7.83928571614583 0.428571425781251  9 0.428571425781251  C 11.5595238151042 0.428571425781251  13.6279761979167 1.21726190104167  15.2053571484375 2.7946428515625  Z " fill-rule="nonzero" fill="#000000" stroke="none" transform="matrix(1 0 0 1 269 2041 )" />
  </g>
</svg>