<?xml version="1.0" encoding="utf-8"?>
<svg version="1.1" xmlns:xlink="http://www.w3.org/1999/xlink" width="4px" height="4px" xmlns="http://www.w3.org/2000/svg">
  <g transform="matrix(1 0 0 1 -235 -889 )">
    <path d="M 0.556640625 2.064453125  C 0.5546875 2.978515625  1.27734375 3.72265625  2.166015625 3.72265625  C 3.052734375 3.72265625  3.775390625 2.978515625  3.775390625 2.064453125  C 3.775390625 1.150390625  3.052734375 0.408203125000001  2.166015625 0.408203125000001  C 1.279296875 0.408203125000001  0.556640625 1.15234375  0.556640625 2.064453125  Z M 1.41015625 2.064453125  C 1.41015625 1.61328125  1.748046875 1.24609375  2.166015625 1.24609375  C 2.58203125 1.24609375  2.921875 1.61328125  2.921875 2.064453125  C 2.921875 2.515625  2.583984375 2.884765625  2.166015625 2.884765625  C 1.75 2.884765625  1.41015625 2.517578125  1.41015625 2.064453125  Z " fill-rule="nonzero" fill="#000000" stroke="none" transform="matrix(1 0 0 1 235 889 )" />
  </g>
</svg>