<?xml version="1.0" encoding="utf-8"?>
<svg version="1.1" xmlns:xlink="http://www.w3.org/1999/xlink" width="19px" height="14px" xmlns="http://www.w3.org/2000/svg">
  <g transform="matrix(1 0 0 1 -232 -887 )">
    <path d="M 18.25390625 3.00390625  C 18.255859375 1.759765625  17.22265625 0.74609375  15.953125 1  L 3.05859375 1  C 1.7890625 0.74609375  0.755859375 1.759765625  0.755859375 3.005859375  L 0.755859375 10.986328125  C 0.755859375 12.232421875  1.7890625 13.24609375  3.05859375 13  L 15.951171875 13  C 17.220703125 13.24609375  18.25390625 12.232421875  18.25390625 10.986328125  L 18.25390625 3.00390625  Z M 1.611328125 10.986328125  L 1.611328125 3.00390625  C 1.611328125 2.220703125  2.26171875 1.583984375  3.060546875 1.583984375  L 15.953125 1.583984375  C 16.751953125 1.583984375  17.40234375 2.220703125  17.40234375 3.00390625  L 17.40234375 10.984375  C 17.40234375 11.060546875  17.396484375 11.134765625  17.384765625 11.208984375  L 13.302734375 5.828125  C 12.96875 5.388671875  12.458984375 5.13671875  11.900390625 5.13671875  L 11.890625 5.13671875  C 11.328125 5.140625  10.81640625 5.3984375  10.486328125 5.84375  L 8.9296875 7.94921875  C 8.7734375 8.16015625  8.53125 8.291015625  8.265625 8.30859375  C 8 8.326171875  7.7421875 8.2265625  7.55859375 8.0390625  L 7.287109375 7.759765625  C 6.9453125 7.408203125  6.46484375 7.212890625  5.970703125 7.2265625  C 5.474609375 7.240234375  5.0078125 7.4609375  4.6875 7.83203125  L 1.658203125 11.34375  C 1.626953125 11.228515625  1.611328125 11.109375  1.611328125 10.986328125  Z M 3.05859375 12.408203125  L 3.05859375 12.40625  C 2.708984375 12.40625  2.38671875 12.283203125  2.13671875 12.080078125  C 2.1484375 12.0703125  2.158203125 12.05859375  2.16796875 12.046875  L 5.33984375 8.375  C 5.505859375 8.18359375  5.73828125 8.072265625  5.99609375 8.064453125  C 6.251953125 8.056640625  6.4921875 8.154296875  6.669921875 8.3359375  L 6.94140625 8.615234375  C 7.30078125 8.986328125  7.8046875 9.177734375  8.32421875 9.14453125  C 8.84375 9.111328125  9.31640625 8.853515625  9.623046875 8.44140625  L 11.177734375 6.3359375  C 11.345703125 6.107421875  11.607421875 5.9765625  11.89453125 5.974609375  L 11.900390625 5.974609375  C 12.185546875 5.974609375  12.447265625 6.103515625  12.6171875 6.328125  L 16.884765625 11.958984375  C 16.90234375 11.982421875  16.921875 12.001953125  16.94140625 12.021484375  C 16.681640625 12.259765625  16.333984375 12.408203125  15.951171875 12.408203125  L 3.05859375 12.408203125  Z " fill-rule="nonzero" fill="#000000" stroke="none" transform="matrix(1 0 0 1 232 887 )" />
  </g>
</svg>