<?xml version="1.0" encoding="utf-8"?>
<svg version="1.1" xmlns:xlink="http://www.w3.org/1999/xlink" width="20px" height="12px" xmlns="http://www.w3.org/2000/svg">
  <g transform="matrix(1 0 0 1 -286 -1571 )">
    <path d="M 6.723203125 0.0936718750000001  L 11.17318359375 11.66361328125  L 9.2718359375 11.66361328125  L 8.1795703125 8.66998046875  L 3.24416015625 8.66998046875  L 2.15189453125 11.66361328125  L 0.2909765625 11.66361328125  L 4.74095703125 0.0936718750000001  L 6.72322265625 0.0936718750000001  Z M 3.7700390625 7.2136328125  L 7.6941015625 7.2136328125  L 5.79275390625 1.99501953125  L 5.7118359375 1.99501953125  L 3.7700390625 7.2136328125  Z M 18.6572265625 3.97728515625  C 19.14265625 4.503203125  19.42587890625 5.2718359375  19.42587890625 6.3236328125  L 19.42587890625 11.66361328125  L 17.8481640625 11.66361328125  L 17.8481640625 10.4904296875  C 17.52453125 10.895  17.11998046875 11.25908203125  16.63453125 11.50177734375  C 16.06818359375 11.74451171875  15.4208984375 11.90634765625  14.692734375 11.90634765625  C 13.802734375 11.90634765625  13.15546875 11.66361328125  12.67001953125 11.25908203125  C 12.1441015625 10.81408203125  11.8609375 10.247734375  11.8609375 9.56  C 11.8609375 8.6295703125  12.22501953125 7.9013671875  12.993671875 7.37544921875  C 13.68138671875 6.89001953125  14.6523046875 6.647265625  15.86591796875 6.606796875  L 17.7268359375 6.56634765625  L 17.7268359375 6.24271484375  C 17.7268359375 5.06953125  17.0795703125 4.5031640625  15.82548828125 4.5031640625  C 15.2995703125 4.5031640625  14.8545703125 4.58408203125  14.5309375 4.78634765625  C 14.1263671875 5.02908203125  13.883671875 5.3526953125  13.80275390625 5.83814453125  L 12.103671875 5.676328125  C 12.26548828125 4.786328125  12.7509375 4.09861328125  13.438671875 3.65361328125  C 14.04548828125 3.24904296875  14.89501953125 3.087265625  15.94681640625 3.087265625  C 17.16044921875 3.087265625  18.05044921875 3.37044921875  18.65724609375 3.97726562499999  Z M 15.94677734375 7.86091796875  C 14.3690625 7.9013671875  13.6004296875 8.427265625  13.6004296875 9.4791015625  C 13.6004296875 9.802734375  13.72177734375 10.04544921875  14.005 10.28818359375  C 14.247734375 10.49044921875  14.61181640625 10.61181640625  15.056796875 10.61181640625  C 15.78498046875 10.61181640625  16.391796875 10.36908203125  16.91771484375 9.96455078125  C 17.4436328125 9.51955078125  17.726796875 8.9936328125  17.726796875 8.3463671875  L 17.726796875 7.8609375  L 15.94681640625 7.8609375  Z " fill-rule="nonzero" fill="#00c7b8" stroke="none" transform="matrix(1 0 0 1 286 1571 )" />
  </g>
</svg>