<?xml version="1.0" encoding="utf-8"?>
<svg version="1.1" xmlns:xlink="http://www.w3.org/1999/xlink" width="18px" height="17px" xmlns="http://www.w3.org/2000/svg">
  <g transform="matrix(1 0 0 1 -373 -3307 )">
    <path d="M 12.43 8.4  C 12.42 6.49  10.87 4.94  8.97 4.94  C 7.07 4.94  5.52 6.49  5.52 8.39  C 5.52 10.29  7.07 11.84  8.97 11.84  C 9.56 11.84  10.15 11.69  10.66 11.4  C 10.83 11.3  10.9 11.08  10.8 10.91  C 10.7 10.74  10.48 10.67  10.31 10.77  C 9.91 11  9.44 11.12  8.98 11.12  C 7.48 11.12  6.26 9.9  6.26 8.4  C 6.26 6.9  7.48 5.68  8.98 5.68  C 10.48 5.68  11.7 6.9  11.7 8.4  C 11.7 8.87  11.58 9.33  11.35 9.74  C 11.25 9.91  11.31 10.14  11.49 10.23  C 11.66 10.33  11.89 10.27  11.98 10.09  C 12.27 9.58  12.43 8.99  12.43 8.4  Z M 17.35 7.12  C 17.35 6.94  17.22 6.79  17.05 6.76  L 14.6 6.36  C 14.55 6.22  14.49 6.07  14.42 5.93  L 15.87 3.92  C 15.97 3.78  15.96 3.58  15.83 3.45  L 13.98 1.6  C 13.85 1.47  13.66 1.46  13.51 1.56  L 11.49 3.01  C 11.34 2.94  11.19 2.88  11.04 2.83  L 10.65 0.34  C 10.62 0.16  10.47 0.0299999999999998  10.29 0.0299999999999998  L 7.68 0.0299999999999998  C 7.5 0.0299999999999998  7.35 0.16  7.32 0.34  L 6.93 2.83  C 6.79 2.88  6.66 2.94  6.52 3  L 4.48 1.52  C 4.34 1.41  4.14 1.43  4.01 1.56  L 2.16 3.4  C 2.03 3.53  2.02 3.73  2.12 3.87  L 3.6 5.9  C 3.53 6.06  3.46 6.21  3.4 6.37  L 0.96 6.76  C 0.78 6.79  0.65 6.94  0.65 7.12  L 0.65 9.74  C 0.65 9.92  0.78 10.07  0.96 10.1  L 3.4 10.48  C 3.46 10.63  3.52 10.79  3.59 10.94  L 2.14 12.94  C 2.03 13.08  2.05 13.28  2.18 13.41  L 4.03 15.26  C 4.16 15.39  4.36 15.4  4.5 15.3  L 6.5 13.84  C 6.64 13.91  6.79 13.97  6.94 14.02  L 7.33 16.43  C 7.36 16.61  7.51 16.73  7.69 16.73  L 10.3 16.73  C 10.48 16.73  10.63 16.6  10.66 16.43  L 11.05 14.03  C 11.21 13.97  11.37 13.9  11.53 13.83  L 13.5 15.25  C 13.64 15.35  13.84 15.34  13.97 15.21  L 15.82 13.36  C 15.95 13.23  15.96 13.04  15.86 12.89  L 14.43 10.9  C 14.49 10.76  14.55 10.63  14.6 10.49  L 17.05 10.09  C 17.23 10.06  17.35 9.91  17.35 9.73  L 17.35 7.12  Z M 16.63 7.43  L 16.62 9.43  L 14.26 9.81  C 14.13 9.83  14.02 9.93  13.97 10.06  C 13.89 10.31  13.79 10.55  13.67 10.78  C 13.61 10.9  13.62 11.05  13.7 11.16  L 15.08 13.07  L 13.67 14.48  L 11.77 13.11  C 11.66 13.03  11.51 13.02  11.39 13.08  C 11.14 13.21  10.87 13.32  10.61 13.41  C 10.48 13.45  10.39 13.56  10.36 13.7  L 9.98 16.01  L 7.98 16.01  L 7.6 13.69  C 7.58 13.56  7.48 13.45  7.35 13.4  C 7.09 13.32  6.84 13.21  6.6 13.09  C 6.48 13.03  6.33 13.04  6.22 13.12  L 4.3 14.52  L 2.9 13.11  L 4.3 11.18  C 4.38 11.07  4.39 10.92  4.33 10.8  C 4.2 10.55  4.09 10.29  4.01 10.03  C 3.97 9.9  3.86 9.8  3.72 9.78  L 1.37 9.41  L 1.37 7.41  L 3.72 7.04  C 3.86 7.02  3.97 6.92  4.01 6.79  C 4.1 6.52  4.21 6.26  4.34 6.01  C 4.4 5.89  4.39 5.74  4.31 5.63  L 2.89 3.7  L 4.3 2.29  L 6.27 3.72  C 6.38 3.8  6.53 3.81  6.65 3.75  C 6.88 3.63  7.13 3.53  7.37 3.45  C 7.5 3.41  7.59 3.3  7.62 3.16  L 8 0.759999999999999  L 10 0.759999999999999  L 10.38 3.15  C 10.4 3.29  10.5 3.4  10.63 3.44  C 10.89 3.52  11.14 3.63  11.38 3.75  C 11.5 3.81  11.65 3.8  11.76 3.72  L 13.7 2.32  L 15.1 3.74  L 13.7 5.68  C 13.62 5.79  13.61 5.94  13.67 6.06  C 13.79 6.3  13.9 6.55  13.98 6.8  C 14.02 6.93  14.13 7.02  14.27 7.05  L 16.63 7.43  Z " fill-rule="nonzero" fill="#00c7b8" stroke="none" transform="matrix(1 0 0 1 373 3307 )" />
  </g>
</svg>