<?xml version="1.0" encoding="utf-8"?>
<svg version="1.1" xmlns:xlink="http://www.w3.org/1999/xlink" width="12px" height="12px" viewBox="502 705  12 12" xmlns="http://www.w3.org/2000/svg">
  <path d="M 508 705  C 511.36 705  514 707.64  514 711  C 514 714.36  511.36 717  508 717  C 504.64 717  502 714.36  502 711  C 502 707.64  504.64 705  508 705  Z " fill-rule="nonzero" fill="#ffffff" stroke="none" />
  <path d="M 508 705.5  C 511.08 705.5  513.5 707.92  513.5 711  C 513.5 714.08  511.08 716.5  508 716.5  C 504.92 716.5  502.5 714.08  502.5 711  C 502.5 707.92  504.92 705.5  508 705.5  Z " stroke-width="1" stroke="#797979" fill="none" />
  <path d="M 508 714  C 506.32 714  505 712.68  505 711  C 505 709.32  506.32 708  508 708  C 509.68 708  511 709.32  511 711  C 511 712.68  509.68 714  508 714  " fill-rule="nonzero" fill="#797979" stroke="none" />
</svg>