<?xml version="1.0" encoding="utf-8"?>
<svg version="1.1" xmlns:xlink="http://www.w3.org/1999/xlink" width="12px" height="12px" viewBox="502 783  12 12" xmlns="http://www.w3.org/2000/svg">
  <path d="M 508 783  C 511.36 783  514 785.64  514 789  C 514 792.36  511.36 795  508 795  C 504.64 795  502 792.36  502 789  C 502 785.64  504.64 783  508 783  Z " fill-rule="nonzero" fill="#ffffff" stroke="none" />
  <path d="M 508 783.5  C 511.08 783.5  513.5 785.92  513.5 789  C 513.5 792.08  511.08 794.5  508 794.5  C 504.92 794.5  502.5 792.08  502.5 789  C 502.5 785.92  504.92 783.5  508 783.5  Z " stroke-width="1" stroke="#797979" fill="none" />
  <path d="M 508 792  C 506.32 792  505 790.68  505 789  C 505 787.32  506.32 786  508 786  C 509.68 786  511 787.32  511 789  C 511 790.68  509.68 792  508 792  " fill-rule="nonzero" fill="#797979" stroke="none" />
</svg>