<?xml version="1.0" encoding="utf-8"?>
<svg version="1.1" xmlns:xlink="http://www.w3.org/1999/xlink" width="12px" height="12px" viewBox="502 822  12 12" xmlns="http://www.w3.org/2000/svg">
  <path d="M 508 822  C 511.36 822  514 824.64  514 828  C 514 831.36  511.36 834  508 834  C 504.64 834  502 831.36  502 828  C 502 824.64  504.64 822  508 822  Z " fill-rule="nonzero" fill="#ffffff" stroke="none" />
  <path d="M 508 822.5  C 511.08 822.5  513.5 824.92  513.5 828  C 513.5 831.08  511.08 833.5  508 833.5  C 504.92 833.5  502.5 831.08  502.5 828  C 502.5 824.92  504.92 822.5  508 822.5  Z " stroke-width="1" stroke="#797979" fill="none" />
  <path d="M 508 831  C 506.32 831  505 829.68  505 828  C 505 826.32  506.32 825  508 825  C 509.68 825  511 826.32  511 828  C 511 829.68  509.68 831  508 831  " fill-rule="nonzero" fill="#797979" stroke="none" />
</svg>