<?xml version="1.0" encoding="utf-8"?>
<svg version="1.1" xmlns:xlink="http://www.w3.org/1999/xlink" width="12px" height="12px" viewBox="917 745  12 12" xmlns="http://www.w3.org/2000/svg">
  <path d="M 923 745  C 926.36 745  929 747.64  929 751  C 929 754.36  926.36 757  923 757  C 919.64 757  917 754.36  917 751  C 917 747.64  919.64 745  923 745  Z " fill-rule="nonzero" fill="#ffffff" stroke="none" />
  <path d="M 923 745.5  C 926.08 745.5  928.5 747.92  928.5 751  C 928.5 754.08  926.08 756.5  923 756.5  C 919.92 756.5  917.5 754.08  917.5 751  C 917.5 747.92  919.92 745.5  923 745.5  Z " stroke-width="1" stroke="#797979" fill="none" />
  <path d="M 923 754  C 921.32 754  920 752.68  920 751  C 920 749.32  921.32 748  923 748  C 924.68 748  926 749.32  926 751  C 926 752.68  924.68 754  923 754  " fill-rule="nonzero" fill="#797979" stroke="none" />
</svg>