<?xml version="1.0" encoding="utf-8"?>
<svg version="1.1" xmlns:xlink="http://www.w3.org/1999/xlink" width="12px" height="12px" viewBox="917 784  12 12" xmlns="http://www.w3.org/2000/svg">
  <path d="M 923 784  C 926.36 784  929 786.64  929 790  C 929 793.36  926.36 796  923 796  C 919.64 796  917 793.36  917 790  C 917 786.64  919.64 784  923 784  Z " fill-rule="nonzero" fill="#ffffff" stroke="none" />
  <path d="M 923 784.5  C 926.08 784.5  928.5 786.92  928.5 790  C 928.5 793.08  926.08 795.5  923 795.5  C 919.92 795.5  917.5 793.08  917.5 790  C 917.5 786.92  919.92 784.5  923 784.5  Z " stroke-width="1" stroke="#797979" fill="none" />
  <path d="M 923 793  C 921.32 793  920 791.68  920 790  C 920 788.32  921.32 787  923 787  C 924.68 787  926 788.32  926 790  C 926 791.68  924.68 793  923 793  " fill-rule="nonzero" fill="#797979" stroke="none" />
</svg>