<?xml version="1.0" encoding="utf-8"?>
<svg version="1.1" xmlns:xlink="http://www.w3.org/1999/xlink" width="12px" height="12px" viewBox="917 823  12 12" xmlns="http://www.w3.org/2000/svg">
  <path d="M 923 823  C 926.36 823  929 825.64  929 829  C 929 832.36  926.36 835  923 835  C 919.64 835  917 832.36  917 829  C 917 825.64  919.64 823  923 823  Z " fill-rule="nonzero" fill="#ffffff" stroke="none" />
  <path d="M 923 823.5  C 926.08 823.5  928.5 825.92  928.5 829  C 928.5 832.08  926.08 834.5  923 834.5  C 919.92 834.5  917.5 832.08  917.5 829  C 917.5 825.92  919.92 823.5  923 823.5  Z " stroke-width="1" stroke="#797979" fill="none" />
  <path d="M 923 832  C 921.32 832  920 830.68  920 829  C 920 827.32  921.32 826  923 826  C 924.68 826  926 827.32  926 829  C 926 830.68  924.68 832  923 832  " fill-rule="nonzero" fill="#797979" stroke="none" />
</svg>