<?xml version="1.0" encoding="utf-8"?>
<svg version="1.1" xmlns:xlink="http://www.w3.org/1999/xlink" width="16px" height="18px" xmlns="http://www.w3.org/2000/svg">
  <g transform="matrix(1 0 0 1 -503 -1363 )">
    <path d="M 15.7468503320312 8.39358306640625  C 15.7468503320313 7.342012421875  14.7255165429687 6.49874013671875  13.8788845898438 6.49874013671875  L 10.1832689257813 6.49874013671875  C 10.4520409765625 5.8738451171875  10.761128828125 4.25785318359375  10.5797076953125 2.79304552734375  C 10.4386023828125 1.6205274609375  9.753233671875 0.72014111328125  8.75205779296875 0.38081638671875  C 8.00957501953125 0.12884259765625  7.22341677734375 0.24979001953125  6.80010080078125 0.68318494140625  C 6.296153203125 1.197211484375  6.06097767578125 2.164790859375  5.8090038671875 3.18948427734375  C 5.64438099609375 3.86141439453125  5.47639845703125 4.553502421875  5.26474046875 4.9129850390625  C 4.6566437109375 5.947757421875  3.3766168359375 6.502099765625  3.124643046875 6.502099765625  L 1.374265078125 6.502099765625  C 1.02822107421875 6.502099765625  0.749370058593751 6.78431041015625  0.749370058593751 7.13035443359375  L 0.749370058593751 15.8788845898438  C 0.749370058593751 16.22492859375  1.0282210546875 16.503779609375  1.374265078125 16.503779609375  L 3.0641693359375 16.503779609375  C 3.58827482421875 16.503779609375  5.53351251953125 17.7535696289062  7.78783806640625 17.7535696289062  L 12.0041995703125 17.7535696289062  C 12.6996472460937 17.7535696289062  13.8956828515625 17.484797578125  14.3425163867187 16.7423148046875  C 14.7927095703125 15.9897530664063  15.7468503320312 9.149504453125  15.7468503320312 8.39358306640625  Z " fill-rule="nonzero" fill="#00c7b8" stroke="none" transform="matrix(1 0 0 1 503 1363 )" />
  </g>
</svg>