<?xml version="1.0" encoding="utf-8"?>
<svg version="1.1" xmlns:xlink="http://www.w3.org/1999/xlink" width="20px" height="20px" xmlns="http://www.w3.org/2000/svg">
  <g transform="matrix(1 0 0 1 -265 -1362 )">
    <path d="M 19.3333333398438 8.8  C 19.6333333398438 8.46666666015625  19.7333333398438 8.03333333984375  19.6 7.63333333984375  C 19.4666666601562 7.23333333984375  19.1333333398438 6.9666666796875  18.7333333398437 6.9  L 13.4 6.06666666015625  L 11 0.96666666015625  C 10.8333333398437 0.56666666015625  10.4333333398438 0.33333333984375  10 0.33333333984375  C 9.56666666015625 0.33333333984375  9.2 0.5666666796875  9 0.96666666015625  L 6.6 6.06666666015625  L 1.26666666015625 6.86666666015625  C 0.86666666015625 6.9333333203125  0.5333333203125 7.2  0.4 7.6  C 0.26666666015625 8  0.36666666015625 8.43333333984375  0.66666666015625 8.7  L 4.56666666015625 12.7  L 3.63333333984375 18.3333333398437  C 3.5666666796875 18.7333333398437  3.73333333984375 19.1666666796875  4.1 19.4  C 4.43333333984375 19.6333333398438  4.9 19.6666666601562  5.26666666015625 19.4666666601562  L 10 16.9  L 14.7666666601563 19.5666666601562  C 14.9333333203125 19.6333333203125  15.1 19.7  15.2666666601563 19.7  C 15.8666666601563 19.7  16.3666666601563 19.2  16.3666666601563 18.6  C 16.3666666601563 18.4666666601562  16.3333333203125 18.3666666601562  16.3 18.2666666601562  L 15.4333333398438 12.8  L 19.3333333398438 8.8  Z " fill-rule="nonzero" fill="#00c7b8" stroke="none" transform="matrix(1 0 0 1 265 1362 )" />
  </g>
</svg>