<?xml version="1.0" encoding="utf-8"?>
<svg version="1.1" xmlns:xlink="http://www.w3.org/1999/xlink" width="13px" height="15px" xmlns="http://www.w3.org/2000/svg">
  <g transform="matrix(1 0 0 1 -1171 -844 )">
    <path d="M 12.0601377490234 7.04518729980469  C 12.0601377490234 6.25650931640625  11.2941374072266 5.62405510253906  10.6591634423828 5.62405510253906  L 7.88745169433594 5.62405510253906  C 8.08903073242188 5.15538383789062  8.32084662109375 3.94338988769531  8.18478077148438 2.84478414550781  C 8.07895178710938 1.96539559570313  7.56492525390625 1.29010583496094  6.81404334472656 1.03561229003906  C 6.25718126464844 0.846631948242188  5.66756258300781 0.937342514648438  5.35007560058594 1.26238870605469  C 4.97211490234375 1.64790861328125  4.79573325683594 2.37359314453125  4.60675290039063 3.14211320800781  C 4.48328574707031 3.64606079589844  4.35729884277344 4.16512681640625  4.1985553515625 4.43473877929688  C 3.74248278320313 5.21081806640625  2.78246262695313 5.62657482421875  2.59348228515625 5.62657482421875  L 1.28069880859375 5.62657482421875  C 1.02116580566406 5.62657482421875  0.812027543945313 5.83823280761719  0.812027543945313 6.09776582519531  L 0.812027543945313 12.6591634423828  C 0.812027543945313 12.9186964453125  1.02116579101563 13.1278347070313  1.28069880859375 13.1278347070313  L 2.54812700195313 13.1278347070313  C 2.94120611816406 13.1278347070313  4.40013438964844 14.0651772216797  6.09087854980469 14.0651772216797  L 9.25314967773437 14.0651772216797  C 9.77473543457031 14.0651772216797  10.6717621386719 13.8635981835938  11.0068872900391 13.3067361035156  C 11.3445321777344 12.7423147998047  12.0601377490234 7.61212833984375  12.0601377490234 7.04518729980469  Z " fill-rule="nonzero" fill="#aeaeae" stroke="none" transform="matrix(1 0 0 1 1171 844 )" />
  </g>
</svg>